<?xml version="1.0" encoding="UTF-8" standalone="no"?>
<!DOCTYPE svg PUBLIC "-//W3C//DTD SVG 1.1//EN"
 "http://www.w3.org/Graphics/SVG/1.1/DTD/svg11.dtd">
<!-- Generated by graphviz version 2.38.0 (20140413.2041)
 -->
<!-- Title: snakemake_dag Pages: 1 -->
<svg width="395pt" height="548pt"
 viewBox="0.00 0.00 394.74 548.00" xmlns="http://www.w3.org/2000/svg" xmlns:xlink="http://www.w3.org/1999/xlink">
<g id="graph0" class="graph" transform="scale(1 1) rotate(0) translate(4 544)">
<title>snakemake_dag</title>
<polygon fill="white" stroke="none" points="-4,4 -4,-544 390.74,-544 390.74,4 -4,4"/>
<!-- 0 -->
<g id="node1" class="node"><title>0</title>
<path fill="none" stroke="#d8b456" stroke-width="2" d="M346,-36C346,-36 316,-36 316,-36 310,-36 304,-30 304,-24 304,-24 304,-12 304,-12 304,-6 310,-0 316,-0 316,-0 346,-0 346,-0 352,-0 358,-6 358,-12 358,-12 358,-24 358,-24 358,-30 352,-36 346,-36"/>
<text text-anchor="middle" x="331" y="-15" font-family="sans" font-size="10.00">all</text>
</g>
<!-- 1 -->
<g id="node2" class="node"><title>1</title>
<path fill="none" stroke="#5682d8" stroke-width="2" d="M361.984,-108C361.984,-108 300.016,-108 300.016,-108 294.016,-108 288.016,-102 288.016,-96 288.016,-96 288.016,-84 288.016,-84 288.016,-78 294.016,-72 300.016,-72 300.016,-72 361.984,-72 361.984,-72 367.984,-72 373.984,-78 373.984,-84 373.984,-84 373.984,-96 373.984,-96 373.984,-102 367.984,-108 361.984,-108"/>
<text text-anchor="middle" x="331" y="-87" font-family="sans" font-size="10.00">samtools_index</text>
</g>
<!-- 1&#45;&gt;0 -->
<g id="edge2" class="edge"><title>1&#45;&gt;0</title>
<path fill="none" stroke="grey" stroke-width="2" d="M331,-71.6966C331,-63.9827 331,-54.7125 331,-46.1124"/>
<polygon fill="grey" stroke="grey" stroke-width="2" points="334.5,-46.1043 331,-36.1043 327.5,-46.1044 334.5,-46.1043"/>
</g>
<!-- 2 -->
<g id="node3" class="node"><title>2</title>
<path fill="none" stroke="#70d856" stroke-width="2" d="M185,-108C185,-108 155,-108 155,-108 149,-108 143,-102 143,-96 143,-96 143,-84 143,-84 143,-78 149,-72 155,-72 155,-72 185,-72 185,-72 191,-72 197,-78 197,-84 197,-84 197,-96 197,-96 197,-102 191,-108 185,-108"/>
<text text-anchor="middle" x="170" y="-87" font-family="sans" font-size="10.00">multiqc</text>
</g>
<!-- 2&#45;&gt;0 -->
<g id="edge1" class="edge"><title>2&#45;&gt;0</title>
<path fill="none" stroke="grey" stroke-width="2" d="M197.311,-77.1255C223.991,-65.5256 264.779,-47.7916 294.286,-34.9625"/>
<polygon fill="grey" stroke="grey" stroke-width="2" points="296.049,-38.0128 303.824,-30.8158 293.257,-31.5934 296.049,-38.0128"/>
</g>
<!-- 3 -->
<g id="node4" class="node"><title>3</title>
<path fill="none" stroke="#56d89a" stroke-width="2" d="M327.611,-252C327.611,-252 230.389,-252 230.389,-252 224.389,-252 218.389,-246 218.389,-240 218.389,-240 218.389,-228 218.389,-228 218.389,-222 224.389,-216 230.389,-216 230.389,-216 327.611,-216 327.611,-216 333.611,-216 339.611,-222 339.611,-228 339.611,-228 339.611,-240 339.611,-240 339.611,-246 333.611,-252 327.611,-252"/>
<text text-anchor="middle" x="279" y="-231" font-family="sans" font-size="10.00">picard_mark_duplicates</text>
</g>
<!-- 3&#45;&gt;0 -->
<g id="edge3" class="edge"><title>3&#45;&gt;0</title>
<path fill="none" stroke="grey" stroke-width="2" d="M312.886,-215.86C327.802,-206.894 344.508,-194.705 356,-180 377.045,-153.072 376.902,-141.628 383,-108 385.855,-92.2567 389.052,-86.8111 383,-72 378.512,-61.0173 370.53,-51.081 362.146,-42.8582"/>
<polygon fill="grey" stroke="grey" stroke-width="2" points="364.492,-40.2608 354.752,-36.0901 359.765,-45.4241 364.492,-40.2608"/>
</g>
<!-- 3&#45;&gt;1 -->
<g id="edge4" class="edge"><title>3&#45;&gt;1</title>
<path fill="none" stroke="grey" stroke-width="2" d="M308.04,-215.837C320.318,-206.866 333.308,-194.68 340,-180 348.873,-160.537 345.593,-136.254 340.669,-117.972"/>
<polygon fill="grey" stroke="grey" stroke-width="2" points="343.975,-116.812 337.745,-108.242 337.271,-118.827 343.975,-116.812"/>
</g>
<!-- 3&#45;&gt;2 -->
<g id="edge7" class="edge"><title>3&#45;&gt;2</title>
<path fill="none" stroke="grey" stroke-width="2" d="M292.585,-215.958C305.915,-197.017 322.201,-166.18 307,-144 284.754,-111.541 239.554,-98.9561 207.152,-94.0796"/>
<polygon fill="grey" stroke="grey" stroke-width="2" points="207.5,-90.5952 197.127,-92.7517 206.581,-97.5346 207.5,-90.5952"/>
</g>
<!-- 5 -->
<g id="node6" class="node"><title>5</title>
<path fill="none" stroke="#56d86b" stroke-width="2" d="M136.195,-180C136.195,-180 77.8051,-180 77.8051,-180 71.8051,-180 65.8051,-174 65.8051,-168 65.8051,-168 65.8051,-156 65.8051,-156 65.8051,-150 71.8051,-144 77.8051,-144 77.8051,-144 136.195,-144 136.195,-144 142.195,-144 148.195,-150 148.195,-156 148.195,-156 148.195,-168 148.195,-168 148.195,-174 142.195,-180 136.195,-180"/>
<text text-anchor="middle" x="107" y="-159" font-family="sans" font-size="10.00">samtools_stats</text>
</g>
<!-- 3&#45;&gt;5 -->
<g id="edge12" class="edge"><title>3&#45;&gt;5</title>
<path fill="none" stroke="grey" stroke-width="2" d="M236.924,-215.876C213.025,-206.15 182.94,-193.906 157.74,-183.65"/>
<polygon fill="grey" stroke="grey" stroke-width="2" points="158.926,-180.354 148.344,-179.826 156.287,-186.838 158.926,-180.354"/>
</g>
<!-- 7 -->
<g id="node8" class="node"><title>7</title>
<path fill="none" stroke="#ced856" stroke-width="2" d="M285.549,-180C285.549,-180 178.451,-180 178.451,-180 172.451,-180 166.451,-174 166.451,-168 166.451,-168 166.451,-156 166.451,-156 166.451,-150 172.451,-144 178.451,-144 178.451,-144 285.549,-144 285.549,-144 291.549,-144 297.549,-150 297.549,-156 297.549,-156 297.549,-168 297.549,-168 297.549,-174 291.549,-180 285.549,-180"/>
<text text-anchor="middle" x="232" y="-159" font-family="sans" font-size="10.00">picard_collect_hs_metrics</text>
</g>
<!-- 3&#45;&gt;7 -->
<g id="edge14" class="edge"><title>3&#45;&gt;7</title>
<path fill="none" stroke="grey" stroke-width="2" d="M267.382,-215.697C261.861,-207.474 255.153,-197.483 249.068,-188.421"/>
<polygon fill="grey" stroke="grey" stroke-width="2" points="251.965,-186.456 243.484,-180.104 246.153,-190.358 251.965,-186.456"/>
</g>
<!-- 4 -->
<g id="node5" class="node"><title>4</title>
<path fill="none" stroke="#56d8c9" stroke-width="2" d="M70.3655,-468C70.3655,-468 39.6345,-468 39.6345,-468 33.6345,-468 27.6345,-462 27.6345,-456 27.6345,-456 27.6345,-444 27.6345,-444 27.6345,-438 33.6345,-432 39.6345,-432 39.6345,-432 70.3655,-432 70.3655,-432 76.3655,-432 82.3655,-438 82.3655,-444 82.3655,-444 82.3655,-456 82.3655,-456 82.3655,-462 76.3655,-468 70.3655,-468"/>
<text text-anchor="middle" x="55" y="-447" font-family="sans" font-size="10.00">cutadapt</text>
</g>
<!-- 4&#45;&gt;2 -->
<g id="edge8" class="edge"><title>4&#45;&gt;2</title>
<path fill="none" stroke="grey" stroke-width="2" d="M43.604,-431.899C27.4941,-406.023 0,-354.852 0,-307 0,-307 0,-307 0,-233 0,-189.633 8.79901,-174.12 40,-144 65.6129,-119.275 104.318,-105.511 132.838,-98.2484"/>
<polygon fill="grey" stroke="grey" stroke-width="2" points="133.928,-101.587 142.841,-95.8588 132.302,-94.7781 133.928,-101.587"/>
</g>
<!-- 6 -->
<g id="node7" class="node"><title>6</title>
<path fill="none" stroke="#56b1d8" stroke-width="2" d="M70,-324C70,-324 40,-324 40,-324 34,-324 28,-318 28,-312 28,-312 28,-300 28,-300 28,-294 34,-288 40,-288 40,-288 70,-288 70,-288 76,-288 82,-294 82,-300 82,-300 82,-312 82,-312 82,-318 76,-324 70,-324"/>
<text text-anchor="middle" x="55" y="-303" font-family="sans" font-size="10.00">fastqc</text>
</g>
<!-- 4&#45;&gt;6 -->
<g id="edge13" class="edge"><title>4&#45;&gt;6</title>
<path fill="none" stroke="grey" stroke-width="2" d="M55,-431.871C55,-407.67 55,-363.211 55,-334.393"/>
<polygon fill="grey" stroke="grey" stroke-width="2" points="58.5001,-334.189 55,-324.189 51.5001,-334.189 58.5001,-334.189"/>
</g>
<!-- 10 -->
<g id="node11" class="node"><title>10</title>
<path fill="none" stroke="#d85656" stroke-width="2" d="M176,-396C176,-396 146,-396 146,-396 140,-396 134,-390 134,-384 134,-384 134,-372 134,-372 134,-366 140,-360 146,-360 146,-360 176,-360 176,-360 182,-360 188,-366 188,-372 188,-372 188,-384 188,-384 188,-390 182,-396 176,-396"/>
<text text-anchor="middle" x="161" y="-375" font-family="sans" font-size="10.00">bwa</text>
</g>
<!-- 4&#45;&gt;10 -->
<g id="edge16" class="edge"><title>4&#45;&gt;10</title>
<path fill="none" stroke="grey" stroke-width="2" d="M80.9305,-431.876C94.6617,-422.808 111.706,-411.552 126.536,-401.759"/>
<polygon fill="grey" stroke="grey" stroke-width="2" points="128.554,-404.621 134.97,-396.19 124.696,-398.78 128.554,-404.621"/>
</g>
<!-- 5&#45;&gt;2 -->
<g id="edge6" class="edge"><title>5&#45;&gt;2</title>
<path fill="none" stroke="grey" stroke-width="2" d="M122.573,-143.697C130.202,-135.22 139.523,-124.864 147.876,-115.583"/>
<polygon fill="grey" stroke="grey" stroke-width="2" points="150.518,-117.879 154.606,-108.104 145.315,-113.196 150.518,-117.879"/>
</g>
<!-- 6&#45;&gt;2 -->
<g id="edge9" class="edge"><title>6&#45;&gt;2</title>
<path fill="none" stroke="grey" stroke-width="2" d="M49.7288,-287.813C41.2027,-256.414 28.0838,-188.883 57,-144 73.7319,-118.029 106.876,-104.547 132.962,-97.6985"/>
<polygon fill="grey" stroke="grey" stroke-width="2" points="134.015,-101.045 142.922,-95.3082 132.381,-94.2386 134.015,-101.045"/>
</g>
<!-- 7&#45;&gt;2 -->
<g id="edge5" class="edge"><title>7&#45;&gt;2</title>
<path fill="none" stroke="grey" stroke-width="2" d="M216.674,-143.697C209.241,-135.305 200.177,-125.07 192.02,-115.861"/>
<polygon fill="grey" stroke="grey" stroke-width="2" points="194.4,-113.27 185.15,-108.104 189.16,-117.911 194.4,-113.27"/>
</g>
<!-- 8 -->
<g id="node9" class="node"><title>8</title>
<path fill="none" stroke="#d88556" stroke-width="2" d="M244.921,-324C244.921,-324 179.079,-324 179.079,-324 173.079,-324 167.079,-318 167.079,-312 167.079,-312 167.079,-300 167.079,-300 167.079,-294 173.079,-288 179.079,-288 179.079,-288 244.921,-288 244.921,-288 250.921,-288 256.921,-294 256.921,-300 256.921,-300 256.921,-312 256.921,-312 256.921,-318 250.921,-324 244.921,-324"/>
<text text-anchor="middle" x="212" y="-303" font-family="sans" font-size="10.00">samtools_merge</text>
</g>
<!-- 8&#45;&gt;3 -->
<g id="edge10" class="edge"><title>8&#45;&gt;3</title>
<path fill="none" stroke="grey" stroke-width="2" d="M228.562,-287.697C236.675,-279.22 246.588,-268.864 255.471,-259.583"/>
<polygon fill="grey" stroke="grey" stroke-width="2" points="258.243,-261.749 262.629,-252.104 253.186,-256.908 258.243,-261.749"/>
</g>
<!-- 9 -->
<g id="node10" class="node"><title>9</title>
<path fill="none" stroke="#9fd856" stroke-width="2" d="M75.3702,-540C75.3702,-540 34.6298,-540 34.6298,-540 28.6298,-540 22.6298,-534 22.6298,-528 22.6298,-528 22.6298,-516 22.6298,-516 22.6298,-510 28.6298,-504 34.6298,-504 34.6298,-504 75.3702,-504 75.3702,-504 81.3702,-504 87.3702,-510 87.3702,-516 87.3702,-516 87.3702,-528 87.3702,-528 87.3702,-534 81.3702,-540 75.3702,-540"/>
<text text-anchor="middle" x="55" y="-519" font-family="sans" font-size="10.00">copy_input</text>
</g>
<!-- 9&#45;&gt;4 -->
<g id="edge11" class="edge"><title>9&#45;&gt;4</title>
<path fill="none" stroke="grey" stroke-width="2" d="M55,-503.697C55,-495.983 55,-486.712 55,-478.112"/>
<polygon fill="grey" stroke="grey" stroke-width="2" points="58.5001,-478.104 55,-468.104 51.5001,-478.104 58.5001,-478.104"/>
</g>
<!-- 10&#45;&gt;8 -->
<g id="edge15" class="edge"><title>10&#45;&gt;8</title>
<path fill="none" stroke="grey" stroke-width="2" d="M173.607,-359.697C179.597,-351.474 186.876,-341.483 193.479,-332.421"/>
<polygon fill="grey" stroke="grey" stroke-width="2" points="196.478,-334.248 199.538,-324.104 190.821,-330.126 196.478,-334.248"/>
</g>
</g>
</svg>
