<?xml version="1.0" encoding="UTF-8" standalone="no"?>
<!DOCTYPE svg PUBLIC "-//W3C//DTD SVG 1.1//EN"
 "http://www.w3.org/Graphics/SVG/1.1/DTD/svg11.dtd">
<!-- Generated by graphviz version 2.38.0 (20140413.2041)
 -->
<!-- Title: snakemake_dag Pages: 1 -->
<svg width="533pt" height="692pt"
 viewBox="0.00 0.00 532.74 692.00" xmlns="http://www.w3.org/2000/svg" xmlns:xlink="http://www.w3.org/1999/xlink">
<g id="graph0" class="graph" transform="scale(1 1) rotate(0) translate(4 688)">
<title>snakemake_dag</title>
<polygon fill="white" stroke="none" points="-4,4 -4,-688 528.741,-688 528.741,4 -4,4"/>
<!-- 0 -->
<g id="node1" class="node"><title>0</title>
<path fill="none" stroke="#567bd8" stroke-width="2" d="M426,-36C426,-36 396,-36 396,-36 390,-36 384,-30 384,-24 384,-24 384,-12 384,-12 384,-6 390,-0 396,-0 396,-0 426,-0 426,-0 432,-0 438,-6 438,-12 438,-12 438,-24 438,-24 438,-30 432,-36 426,-36"/>
<text text-anchor="middle" x="411" y="-15" font-family="sans" font-size="10.00">all</text>
</g>
<!-- 1 -->
<g id="node2" class="node"><title>1</title>
<path fill="none" stroke="#56a2d8" stroke-width="2" d="M512.984,-108C512.984,-108 451.016,-108 451.016,-108 445.016,-108 439.016,-102 439.016,-96 439.016,-96 439.016,-84 439.016,-84 439.016,-78 445.016,-72 451.016,-72 451.016,-72 512.984,-72 512.984,-72 518.984,-72 524.984,-78 524.984,-84 524.984,-84 524.984,-96 524.984,-96 524.984,-102 518.984,-108 512.984,-108"/>
<text text-anchor="middle" x="482" y="-87" font-family="sans" font-size="10.00">samtools_index</text>
</g>
<!-- 1&#45;&gt;0 -->
<g id="edge3" class="edge"><title>1&#45;&gt;0</title>
<path fill="none" stroke="grey" stroke-width="2" d="M464.449,-71.6966C455.766,-63.135 445.137,-52.6562 435.652,-43.3045"/>
<polygon fill="grey" stroke="grey" stroke-width="2" points="437.927,-40.6327 428.349,-36.1043 433.012,-45.6175 437.927,-40.6327"/>
</g>
<!-- 2 -->
<g id="node3" class="node"><title>2</title>
<path fill="none" stroke="#78d856" stroke-width="2" d="M138,-108C138,-108 108,-108 108,-108 102,-108 96,-102 96,-96 96,-96 96,-84 96,-84 96,-78 102,-72 108,-72 108,-72 138,-72 138,-72 144,-72 150,-78 150,-84 150,-84 150,-96 150,-96 150,-102 144,-108 138,-108"/>
<text text-anchor="middle" x="123" y="-87" font-family="sans" font-size="10.00">multiqc</text>
</g>
<!-- 2&#45;&gt;0 -->
<g id="edge1" class="edge"><title>2&#45;&gt;0</title>
<path fill="none" stroke="grey" stroke-width="2" d="M150.094,-82.4146C201.876,-69.8288 314.962,-42.3427 373.784,-28.0455"/>
<polygon fill="grey" stroke="grey" stroke-width="2" points="374.877,-31.3818 383.768,-25.6189 373.224,-24.5798 374.877,-31.3818"/>
</g>
<!-- 3 -->
<g id="node4" class="node"><title>3</title>
<path fill="none" stroke="#59d856" stroke-width="2" d="M327.611,-252C327.611,-252 230.389,-252 230.389,-252 224.389,-252 218.389,-246 218.389,-240 218.389,-240 218.389,-228 218.389,-228 218.389,-222 224.389,-216 230.389,-216 230.389,-216 327.611,-216 327.611,-216 333.611,-216 339.611,-222 339.611,-228 339.611,-228 339.611,-240 339.611,-240 339.611,-246 333.611,-252 327.611,-252"/>
<text text-anchor="middle" x="279" y="-231" font-family="sans" font-size="10.00">picard_mark_duplicates</text>
</g>
<!-- 3&#45;&gt;0 -->
<g id="edge2" class="edge"><title>3&#45;&gt;0</title>
<path fill="none" stroke="grey" stroke-width="2" d="M339.622,-217.522C359.309,-209.506 379.324,-197.574 392,-180 420.45,-140.555 419.15,-81.0056 415.299,-46.4646"/>
<polygon fill="grey" stroke="grey" stroke-width="2" points="418.726,-45.6653 413.994,-36.1859 411.782,-46.5472 418.726,-45.6653"/>
</g>
<!-- 3&#45;&gt;1 -->
<g id="edge4" class="edge"><title>3&#45;&gt;1</title>
<path fill="none" stroke="grey" stroke-width="2" d="M339.958,-220.419C368.028,-212.363 400.468,-199.624 425,-180 445.81,-163.354 461.354,-136.95 470.909,-117.218"/>
<polygon fill="grey" stroke="grey" stroke-width="2" points="474.087,-118.684 475.115,-108.139 467.735,-115.741 474.087,-118.684"/>
</g>
<!-- 3&#45;&gt;2 -->
<g id="edge8" class="edge"><title>3&#45;&gt;2</title>
<path fill="none" stroke="grey" stroke-width="2" d="M218.116,-222.982C191.122,-215.504 161.193,-202.512 142,-180 127.47,-162.958 123.205,-137.501 122.293,-118.174"/>
<polygon fill="grey" stroke="grey" stroke-width="2" points="125.792,-118.085 122.087,-108.159 118.793,-118.229 125.792,-118.085"/>
</g>
<!-- 6 -->
<g id="node7" class="node"><title>6</title>
<path fill="none" stroke="#9fd856" stroke-width="2" d="M270.549,-180C270.549,-180 163.451,-180 163.451,-180 157.451,-180 151.451,-174 151.451,-168 151.451,-168 151.451,-156 151.451,-156 151.451,-150 157.451,-144 163.451,-144 163.451,-144 270.549,-144 270.549,-144 276.549,-144 282.549,-150 282.549,-156 282.549,-156 282.549,-168 282.549,-168 282.549,-174 276.549,-180 270.549,-180"/>
<text text-anchor="middle" x="217" y="-159" font-family="sans" font-size="10.00">picard_collect_hs_metrics</text>
</g>
<!-- 3&#45;&gt;6 -->
<g id="edge14" class="edge"><title>3&#45;&gt;6</title>
<path fill="none" stroke="grey" stroke-width="2" d="M263.674,-215.697C256.241,-207.305 247.177,-197.07 239.02,-187.861"/>
<polygon fill="grey" stroke="grey" stroke-width="2" points="241.4,-185.27 232.15,-180.104 236.16,-189.911 241.4,-185.27"/>
</g>
<!-- 7 -->
<g id="node8" class="node"><title>7</title>
<path fill="none" stroke="#d8c356" stroke-width="2" d="M371.195,-180C371.195,-180 312.805,-180 312.805,-180 306.805,-180 300.805,-174 300.805,-168 300.805,-168 300.805,-156 300.805,-156 300.805,-150 306.805,-144 312.805,-144 312.805,-144 371.195,-144 371.195,-144 377.195,-144 383.195,-150 383.195,-156 383.195,-156 383.195,-168 383.195,-168 383.195,-174 377.195,-180 371.195,-180"/>
<text text-anchor="middle" x="342" y="-159" font-family="sans" font-size="10.00">samtools_stats</text>
</g>
<!-- 3&#45;&gt;7 -->
<g id="edge15" class="edge"><title>3&#45;&gt;7</title>
<path fill="none" stroke="grey" stroke-width="2" d="M294.573,-215.697C302.202,-207.22 311.523,-196.864 319.876,-187.583"/>
<polygon fill="grey" stroke="grey" stroke-width="2" points="322.518,-189.879 326.606,-180.104 317.315,-185.196 322.518,-189.879"/>
</g>
<!-- 4 -->
<g id="node5" class="node"><title>4</title>
<path fill="none" stroke="#d8a456" stroke-width="2" d="M70,-468C70,-468 40,-468 40,-468 34,-468 28,-462 28,-456 28,-456 28,-444 28,-444 28,-438 34,-432 40,-432 40,-432 70,-432 70,-432 76,-432 82,-438 82,-444 82,-444 82,-456 82,-456 82,-462 76,-468 70,-468"/>
<text text-anchor="middle" x="55" y="-447" font-family="sans" font-size="10.00">fastqc</text>
</g>
<!-- 4&#45;&gt;2 -->
<g id="edge5" class="edge"><title>4&#45;&gt;2</title>
<path fill="none" stroke="grey" stroke-width="2" d="M53.4195,-431.968C51.088,-405.332 47,-352.186 47,-307 47,-307 47,-307 47,-233 47,-187.641 77.5166,-142.749 99.875,-115.946"/>
<polygon fill="grey" stroke="grey" stroke-width="2" points="102.645,-118.093 106.509,-108.228 97.3364,-113.53 102.645,-118.093"/>
</g>
<!-- 5 -->
<g id="node6" class="node"><title>5</title>
<path fill="none" stroke="#56d87b" stroke-width="2" d="M90.3655,-612C90.3655,-612 59.6345,-612 59.6345,-612 53.6345,-612 47.6345,-606 47.6345,-600 47.6345,-600 47.6345,-588 47.6345,-588 47.6345,-582 53.6345,-576 59.6345,-576 59.6345,-576 90.3655,-576 90.3655,-576 96.3655,-576 102.365,-582 102.365,-588 102.365,-588 102.365,-600 102.365,-600 102.365,-606 96.3655,-612 90.3655,-612"/>
<text text-anchor="middle" x="75" y="-591" font-family="sans" font-size="10.00">cutadapt</text>
</g>
<!-- 5&#45;&gt;2 -->
<g id="edge9" class="edge"><title>5&#45;&gt;2</title>
<path fill="none" stroke="grey" stroke-width="2" d="M58.7261,-575.733C36.668,-550.446 0,-500.905 0,-451 0,-451 0,-451 0,-233 0,-179.254 50.9662,-135.862 87.2839,-111.765"/>
<polygon fill="grey" stroke="grey" stroke-width="2" points="89.1882,-114.701 95.7023,-106.346 85.3993,-108.815 89.1882,-114.701"/>
</g>
<!-- 5&#45;&gt;4 -->
<g id="edge12" class="edge"><title>5&#45;&gt;4</title>
<path fill="none" stroke="grey" stroke-width="2" d="M71.4321,-575.869C69.3598,-565.517 66.8093,-552.038 65,-540 61.8995,-519.372 59.3024,-495.923 57.5325,-478.274"/>
<polygon fill="grey" stroke="grey" stroke-width="2" points="60.9956,-477.724 56.5403,-468.111 54.0287,-478.404 60.9956,-477.724"/>
</g>
<!-- 12 -->
<g id="node13" class="node"><title>12</title>
<path fill="none" stroke="#d87d56" stroke-width="2" d="M121.916,-540C121.916,-540 86.0839,-540 86.0839,-540 80.0839,-540 74.0839,-534 74.0839,-528 74.0839,-528 74.0839,-516 74.0839,-516 74.0839,-510 80.0839,-504 86.0839,-504 86.0839,-504 121.916,-504 121.916,-504 127.916,-504 133.916,-510 133.916,-516 133.916,-516 133.916,-528 133.916,-528 133.916,-534 127.916,-540 121.916,-540"/>
<text text-anchor="middle" x="104" y="-519" font-family="sans" font-size="10.00">bwa_graft</text>
</g>
<!-- 5&#45;&gt;12 -->
<g id="edge20" class="edge"><title>5&#45;&gt;12</title>
<path fill="none" stroke="grey" stroke-width="2" d="M82.1685,-575.697C85.4345,-567.813 89.374,-558.304 93.0022,-549.546"/>
<polygon fill="grey" stroke="grey" stroke-width="2" points="96.32,-550.683 96.9139,-540.104 89.853,-548.003 96.32,-550.683"/>
</g>
<!-- 13 -->
<g id="node14" class="node"><title>13</title>
<path fill="none" stroke="#56d8c9" stroke-width="2" d="M198.308,-540C198.308,-540 163.692,-540 163.692,-540 157.692,-540 151.692,-534 151.692,-528 151.692,-528 151.692,-516 151.692,-516 151.692,-510 157.692,-504 163.692,-504 163.692,-504 198.308,-504 198.308,-504 204.308,-504 210.308,-510 210.308,-516 210.308,-516 210.308,-528 210.308,-528 210.308,-534 204.308,-540 198.308,-540"/>
<text text-anchor="middle" x="181" y="-519" font-family="sans" font-size="10.00">bwa_host</text>
</g>
<!-- 5&#45;&gt;13 -->
<g id="edge21" class="edge"><title>5&#45;&gt;13</title>
<path fill="none" stroke="grey" stroke-width="2" d="M100.931,-575.876C114.662,-566.808 131.706,-555.552 146.536,-545.759"/>
<polygon fill="grey" stroke="grey" stroke-width="2" points="148.554,-548.621 154.97,-540.19 144.696,-542.78 148.554,-548.621"/>
</g>
<!-- 6&#45;&gt;2 -->
<g id="edge7" class="edge"><title>6&#45;&gt;2</title>
<path fill="none" stroke="grey" stroke-width="2" d="M193.764,-143.697C181.812,-134.796 167.077,-123.823 154.153,-114.199"/>
<polygon fill="grey" stroke="grey" stroke-width="2" points="156.08,-111.27 145.969,-108.104 151.899,-116.884 156.08,-111.27"/>
</g>
<!-- 7&#45;&gt;2 -->
<g id="edge6" class="edge"><title>7&#45;&gt;2</title>
<path fill="none" stroke="grey" stroke-width="2" d="M300.554,-146.824C297.662,-145.86 294.789,-144.911 292,-144 246.643,-129.179 194.175,-112.852 159.884,-102.29"/>
<polygon fill="grey" stroke="grey" stroke-width="2" points="160.872,-98.932 150.285,-99.3377 158.814,-105.623 160.872,-98.932"/>
</g>
<!-- 8 -->
<g id="node9" class="node"><title>8</title>
<path fill="none" stroke="#56d8a2" stroke-width="2" d="M184.984,-396C184.984,-396 133.016,-396 133.016,-396 127.016,-396 121.016,-390 121.016,-384 121.016,-384 121.016,-372 121.016,-372 121.016,-366 127.016,-360 133.016,-360 133.016,-360 184.984,-360 184.984,-360 190.984,-360 196.984,-366 196.984,-372 196.984,-372 196.984,-384 196.984,-384 196.984,-390 190.984,-396 184.984,-396"/>
<text text-anchor="middle" x="159" y="-375" font-family="sans" font-size="10.00">disambiguate</text>
</g>
<!-- 8&#45;&gt;2 -->
<g id="edge10" class="edge"><title>8&#45;&gt;2</title>
<path fill="none" stroke="grey" stroke-width="2" d="M154.642,-359.76C146.279,-325.693 128.258,-247.22 122,-180 120.517,-164.069 121.849,-159.999 122,-144 122.078,-135.682 122.226,-126.63 122.384,-118.4"/>
<polygon fill="grey" stroke="grey" stroke-width="2" points="125.888,-118.254 122.594,-108.185 118.89,-118.111 125.888,-118.254"/>
</g>
<!-- 9 -->
<g id="node10" class="node"><title>9</title>
<path fill="none" stroke="#d85656" stroke-width="2" d="M249.7,-324C249.7,-324 186.3,-324 186.3,-324 180.3,-324 174.3,-318 174.3,-312 174.3,-312 174.3,-300 174.3,-300 174.3,-294 180.3,-288 186.3,-288 186.3,-288 249.7,-288 249.7,-288 255.7,-288 261.7,-294 261.7,-300 261.7,-300 261.7,-312 261.7,-312 261.7,-318 255.7,-324 249.7,-324"/>
<text text-anchor="middle" x="218" y="-303" font-family="sans" font-size="10.00">sambamba_sort</text>
</g>
<!-- 8&#45;&gt;9 -->
<g id="edge17" class="edge"><title>8&#45;&gt;9</title>
<path fill="none" stroke="grey" stroke-width="2" d="M173.584,-359.697C180.658,-351.305 189.283,-341.07 197.045,-331.861"/>
<polygon fill="grey" stroke="grey" stroke-width="2" points="199.815,-334.006 203.583,-324.104 194.463,-329.495 199.815,-334.006"/>
</g>
<!-- 9&#45;&gt;3 -->
<g id="edge11" class="edge"><title>9&#45;&gt;3</title>
<path fill="none" stroke="grey" stroke-width="2" d="M233.079,-287.697C240.392,-279.305 249.31,-269.07 257.335,-259.861"/>
<polygon fill="grey" stroke="grey" stroke-width="2" points="260.164,-261.943 264.095,-252.104 254.886,-257.344 260.164,-261.943"/>
</g>
<!-- 10 -->
<g id="node11" class="node"><title>10</title>
<path fill="none" stroke="#56c9d8" stroke-width="2" d="M95.3702,-684C95.3702,-684 54.6298,-684 54.6298,-684 48.6298,-684 42.6298,-678 42.6298,-672 42.6298,-672 42.6298,-660 42.6298,-660 42.6298,-654 48.6298,-648 54.6298,-648 54.6298,-648 95.3702,-648 95.3702,-648 101.37,-648 107.37,-654 107.37,-660 107.37,-660 107.37,-672 107.37,-672 107.37,-678 101.37,-684 95.3702,-684"/>
<text text-anchor="middle" x="75" y="-663" font-family="sans" font-size="10.00">copy_input</text>
</g>
<!-- 10&#45;&gt;5 -->
<g id="edge13" class="edge"><title>10&#45;&gt;5</title>
<path fill="none" stroke="grey" stroke-width="2" d="M75,-647.697C75,-639.983 75,-630.712 75,-622.112"/>
<polygon fill="grey" stroke="grey" stroke-width="2" points="78.5001,-622.104 75,-612.104 71.5001,-622.104 78.5001,-622.104"/>
</g>
<!-- 11 -->
<g id="node12" class="node"><title>11</title>
<path fill="none" stroke="#c6d856" stroke-width="2" d="M191.921,-468C191.921,-468 126.079,-468 126.079,-468 120.079,-468 114.079,-462 114.079,-456 114.079,-456 114.079,-444 114.079,-444 114.079,-438 120.079,-432 126.079,-432 126.079,-432 191.921,-432 191.921,-432 197.921,-432 203.921,-438 203.921,-444 203.921,-444 203.921,-456 203.921,-456 203.921,-462 197.921,-468 191.921,-468"/>
<text text-anchor="middle" x="159" y="-447" font-family="sans" font-size="10.00">samtools_merge</text>
</g>
<!-- 11&#45;&gt;8 -->
<g id="edge16" class="edge"><title>11&#45;&gt;8</title>
<path fill="none" stroke="grey" stroke-width="2" d="M159,-431.697C159,-423.983 159,-414.712 159,-406.112"/>
<polygon fill="grey" stroke="grey" stroke-width="2" points="162.5,-406.104 159,-396.104 155.5,-406.104 162.5,-406.104"/>
</g>
<!-- 12&#45;&gt;11 -->
<g id="edge19" class="edge"><title>12&#45;&gt;11</title>
<path fill="none" stroke="grey" stroke-width="2" d="M117.596,-503.697C124.123,-495.389 132.068,-485.277 139.247,-476.141"/>
<polygon fill="grey" stroke="grey" stroke-width="2" points="142.135,-478.13 145.561,-468.104 136.631,-473.805 142.135,-478.13"/>
</g>
<!-- 13&#45;&gt;11 -->
<g id="edge18" class="edge"><title>13&#45;&gt;11</title>
<path fill="none" stroke="grey" stroke-width="2" d="M175.562,-503.697C173.111,-495.898 170.16,-486.509 167.432,-477.829"/>
<polygon fill="grey" stroke="grey" stroke-width="2" points="170.713,-476.595 164.376,-468.104 164.035,-478.694 170.713,-476.595"/>
</g>
</g>
</svg>
